<mxfile host="app.diagrams.net" modified="2024-06-18T14:49:15.160Z" agent="Mozilla/5.0 (Windows NT 10.0; Win64; x64) AppleWebKit/537.36 (KHTML, like Gecko) Chrome/125.0.0.0 Safari/537.36" etag="d3q7nnn2FaiB7ywd96xi" version="24.4.8" type="github">
  <diagram name="PÃ¡gina-1" id="XBrTxbTauC1JcintBT35">
    <mxGraphModel dx="1434" dy="772" grid="1" gridSize="10" guides="1" tooltips="1" connect="1" arrows="1" fold="1" page="1" pageScale="1" pageWidth="827" pageHeight="1169" math="0" shadow="0">
      <root>
        <mxCell id="0" />
        <mxCell id="1" parent="0" />
        <mxCell id="ssOAzaT7IolKMRtA22Cj-1" value="Compra" style="swimlane;fontStyle=1;align=center;verticalAlign=top;childLayout=stackLayout;horizontal=1;startSize=26;horizontalStack=0;resizeParent=1;resizeParentMax=0;resizeLast=0;collapsible=1;marginBottom=0;whiteSpace=wrap;html=1;" parent="1" vertex="1">
          <mxGeometry x="385" y="370" width="160" height="140" as="geometry" />
        </mxCell>
        <mxCell id="ssOAzaT7IolKMRtA22Cj-2" value="+ produto: vector&amp;lt;Produto&amp;gt;&lt;div&gt;+ qntd: int&lt;/div&gt;&lt;div&gt;+ tipoPag: bool&lt;/div&gt;&lt;div&gt;# id: int&lt;/div&gt;&lt;div&gt;+ dataCompra; date&lt;/div&gt;&lt;div&gt;+ comprador: Usuario&lt;/div&gt;&lt;div&gt;+ valorTotal: float&lt;/div&gt;&lt;div&gt;&lt;br&gt;&lt;/div&gt;" style="text;strokeColor=none;fillColor=none;align=left;verticalAlign=top;spacingLeft=4;spacingRight=4;overflow=hidden;rotatable=0;points=[[0,0.5],[1,0.5]];portConstraint=eastwest;whiteSpace=wrap;html=1;" parent="ssOAzaT7IolKMRtA22Cj-1" vertex="1">
          <mxGeometry y="26" width="160" height="104" as="geometry" />
        </mxCell>
        <mxCell id="ssOAzaT7IolKMRtA22Cj-3" value="" style="line;strokeWidth=1;fillColor=none;align=left;verticalAlign=middle;spacingTop=-1;spacingLeft=3;spacingRight=3;rotatable=0;labelPosition=right;points=[];portConstraint=eastwest;strokeColor=inherit;" parent="ssOAzaT7IolKMRtA22Cj-1" vertex="1">
          <mxGeometry y="130" width="160" height="8" as="geometry" />
        </mxCell>
        <mxCell id="ssOAzaT7IolKMRtA22Cj-4" value="+ method(type): type" style="text;strokeColor=none;fillColor=none;align=left;verticalAlign=top;spacingLeft=4;spacingRight=4;overflow=hidden;rotatable=0;points=[[0,0.5],[1,0.5]];portConstraint=eastwest;whiteSpace=wrap;html=1;" parent="ssOAzaT7IolKMRtA22Cj-1" vertex="1">
          <mxGeometry y="138" width="160" height="2" as="geometry" />
        </mxCell>
        <mxCell id="ssOAzaT7IolKMRtA22Cj-5" value="Usuario" style="swimlane;fontStyle=1;align=center;verticalAlign=top;childLayout=stackLayout;horizontal=1;startSize=26;horizontalStack=0;resizeParent=1;resizeParentMax=0;resizeLast=0;collapsible=1;marginBottom=0;whiteSpace=wrap;html=1;" parent="1" vertex="1">
          <mxGeometry x="320" y="580" width="290" height="270" as="geometry" />
        </mxCell>
        <mxCell id="ssOAzaT7IolKMRtA22Cj-6" value="+ login: String&lt;div&gt;- password: String&lt;/div&gt;&lt;div&gt;# email: String&lt;/div&gt;&lt;div&gt;# telefone: String&lt;/div&gt;&lt;div&gt;# addr: String&lt;/div&gt;&lt;div&gt;# cpf: String&lt;/div&gt;&lt;div&gt;+ favoritos:&lt;span style=&quot;background-color: initial;&quot;&gt;&amp;nbsp;vector&amp;lt;Anuncio&amp;gt;&lt;/span&gt;&lt;/div&gt;&lt;div&gt;+ anuncios: vector&amp;lt;Anuncio&amp;gt;&lt;/div&gt;&lt;div&gt;+ compras: vector&amp;lt;Compra&amp;gt;&lt;/div&gt;&lt;div&gt;&lt;br&gt;&lt;/div&gt;" style="text;strokeColor=none;fillColor=none;align=left;verticalAlign=top;spacingLeft=4;spacingRight=4;overflow=hidden;rotatable=0;points=[[0,0.5],[1,0.5]];portConstraint=eastwest;whiteSpace=wrap;html=1;" parent="ssOAzaT7IolKMRtA22Cj-5" vertex="1">
          <mxGeometry y="26" width="290" height="144" as="geometry" />
        </mxCell>
        <mxCell id="ssOAzaT7IolKMRtA22Cj-7" value="" style="line;strokeWidth=1;fillColor=none;align=left;verticalAlign=middle;spacingTop=-1;spacingLeft=3;spacingRight=3;rotatable=0;labelPosition=right;points=[];portConstraint=eastwest;strokeColor=inherit;" parent="ssOAzaT7IolKMRtA22Cj-5" vertex="1">
          <mxGeometry y="170" width="290" height="8" as="geometry" />
        </mxCell>
        <mxCell id="ssOAzaT7IolKMRtA22Cj-8" value="+ criarAnuncio(produto: Produto): Anuncio&lt;div&gt;+ deletarAnuncio(anuncioDeletar: Anuncio): bool&lt;/div&gt;&lt;div&gt;+ comprar(anuncioCompra: Anuncio): Compra&lt;/div&gt;&lt;div&gt;+ cancelarCompra(compraCancelar: Compra): bool&lt;/div&gt;&lt;div&gt;+ favoritar(anuncioFavoritar: Anuncio): bool&lt;/div&gt;&lt;div&gt;&lt;br&gt;&lt;/div&gt;" style="text;strokeColor=none;fillColor=none;align=left;verticalAlign=top;spacingLeft=4;spacingRight=4;overflow=hidden;rotatable=0;points=[[0,0.5],[1,0.5]];portConstraint=eastwest;whiteSpace=wrap;html=1;" parent="ssOAzaT7IolKMRtA22Cj-5" vertex="1">
          <mxGeometry y="178" width="290" height="92" as="geometry" />
        </mxCell>
        <mxCell id="ssOAzaT7IolKMRtA22Cj-9" value="Anuncio" style="swimlane;fontStyle=1;align=center;verticalAlign=top;childLayout=stackLayout;horizontal=1;startSize=26;horizontalStack=0;resizeParent=1;resizeParentMax=0;resizeLast=0;collapsible=1;marginBottom=0;whiteSpace=wrap;html=1;" parent="1" vertex="1">
          <mxGeometry x="667" y="480" width="160" height="124" as="geometry" />
        </mxCell>
        <mxCell id="ssOAzaT7IolKMRtA22Cj-10" value="&lt;div&gt;# id: int&lt;/div&gt;&lt;div&gt;+ titulo: string&lt;/div&gt;&lt;div&gt;+ descricao: string&lt;/div&gt;&lt;div&gt;+ vendedor: Usuario&lt;/div&gt;" style="text;strokeColor=none;fillColor=none;align=left;verticalAlign=top;spacingLeft=4;spacingRight=4;overflow=hidden;rotatable=0;points=[[0,0.5],[1,0.5]];portConstraint=eastwest;whiteSpace=wrap;html=1;" parent="ssOAzaT7IolKMRtA22Cj-9" vertex="1">
          <mxGeometry y="26" width="160" height="64" as="geometry" />
        </mxCell>
        <mxCell id="ssOAzaT7IolKMRtA22Cj-11" value="" style="line;strokeWidth=1;fillColor=none;align=left;verticalAlign=middle;spacingTop=-1;spacingLeft=3;spacingRight=3;rotatable=0;labelPosition=right;points=[];portConstraint=eastwest;strokeColor=inherit;" parent="ssOAzaT7IolKMRtA22Cj-9" vertex="1">
          <mxGeometry y="90" width="160" height="8" as="geometry" />
        </mxCell>
        <mxCell id="ssOAzaT7IolKMRtA22Cj-12" value="+ produto: Produto&lt;div&gt;&lt;br&gt;&lt;/div&gt;" style="text;strokeColor=none;fillColor=none;align=left;verticalAlign=top;spacingLeft=4;spacingRight=4;overflow=hidden;rotatable=0;points=[[0,0.5],[1,0.5]];portConstraint=eastwest;whiteSpace=wrap;html=1;" parent="ssOAzaT7IolKMRtA22Cj-9" vertex="1">
          <mxGeometry y="98" width="160" height="26" as="geometry" />
        </mxCell>
        <mxCell id="ssOAzaT7IolKMRtA22Cj-13" value="Produto&lt;div&gt;&lt;br&gt;&lt;/div&gt;" style="swimlane;fontStyle=1;align=center;verticalAlign=top;childLayout=stackLayout;horizontal=1;startSize=26;horizontalStack=0;resizeParent=1;resizeParentMax=0;resizeLast=0;collapsible=1;marginBottom=0;whiteSpace=wrap;html=1;" parent="1" vertex="1">
          <mxGeometry x="40" y="480" width="250" height="160" as="geometry" />
        </mxCell>
        <mxCell id="ssOAzaT7IolKMRtA22Cj-14" value="# nome: string&lt;div&gt;# marca: string&lt;/div&gt;&lt;div&gt;# id: int&lt;/div&gt;&lt;div&gt;# preco: float&lt;/div&gt;&lt;div&gt;# quantidade: int&lt;/div&gt;&lt;div&gt;# estado: string&lt;/div&gt;" style="text;strokeColor=none;fillColor=none;align=left;verticalAlign=top;spacingLeft=4;spacingRight=4;overflow=hidden;rotatable=0;points=[[0,0.5],[1,0.5]];portConstraint=eastwest;whiteSpace=wrap;html=1;" parent="ssOAzaT7IolKMRtA22Cj-13" vertex="1">
          <mxGeometry y="26" width="250" height="94" as="geometry" />
        </mxCell>
        <mxCell id="ssOAzaT7IolKMRtA22Cj-15" value="" style="line;strokeWidth=1;fillColor=none;align=left;verticalAlign=middle;spacingTop=-1;spacingLeft=3;spacingRight=3;rotatable=0;labelPosition=right;points=[];portConstraint=eastwest;strokeColor=inherit;" parent="ssOAzaT7IolKMRtA22Cj-13" vertex="1">
          <mxGeometry y="120" width="250" height="8" as="geometry" />
        </mxCell>
        <mxCell id="ssOAzaT7IolKMRtA22Cj-16" value="+ verificarQuantidade(quantidade: int): void" style="text;strokeColor=none;fillColor=none;align=left;verticalAlign=top;spacingLeft=4;spacingRight=4;overflow=hidden;rotatable=0;points=[[0,0.5],[1,0.5]];portConstraint=eastwest;whiteSpace=wrap;html=1;" parent="ssOAzaT7IolKMRtA22Cj-13" vertex="1">
          <mxGeometry y="128" width="250" height="32" as="geometry" />
        </mxCell>
      </root>
    </mxGraphModel>
  </diagram>
</mxfile>
